# xmcd CD database file
#
# Track frame offsets:
#	150
#	30399
#	50663
#	88487
#	139276
#	162148
#	201556
#	253453
#	269956
#	309857
#	329489
#
# Disc length: 4712 seconds
#
# Revision: 0
# Processed by: cddbd v1.5.2PL0 Copyright (c) Steve Scherf et al.
# Submitted via: CDex 1.70beta2
#
DISCID=b112660b
DTITLE=Various Artist - The Best of Polish Smooth Jazz Vol.3 - CD 2
DYEAR=2006
DGENRE=Jazz
TTITLE0=Zbigniew Namysłowski - Nie do opisania
TTITLE1=Tomasz Stańko - Mademoiselle "Ka"
TTITLE2=Henryk Miśkiewicz - Stars Fell On Alabama
TTITLE3=Tomasz Szukalski Quartet - Pieśn Portugalska
TTITLE4=Simple Acoustic Trio - King Korn
TTITLE5=Andrzej Cudzich Quartet Feat. Gary Thomas - Don't Look Back
TTITLE6=Włodek Pawlik Quartet Feat. Randy Becker - Moontide
TTITLE7=Jan Ptaszyn Wróblewski - Klicheć chechcioł dana
TTITLE8=Traveling Birds Quintet - Temple Drake
TTITLE9=Jerzy Milian - I'll Remember Olga
TTITLE10=Michał Kulenty Quartet - Frasobliwy
EXTD=YEAR: 2006
EXTT0=
EXTT1=
EXTT2=
EXTT3=
EXTT4=
EXTT5=
EXTT6=
EXTT7=
EXTT8=
EXTT9=
EXTT10=
PLAYORDER=
